<?xml version="1.0" standalone="no"?>
<!DOCTYPE svg PUBLIC "-//W3C//DTD SVG 20010904//EN"
 "http://www.w3.org/TR/2001/REC-SVG-20010904/DTD/svg10.dtd">
<svg version="1.0" xmlns="http://www.w3.org/2000/svg"
 width="192.000000pt" height="192.000000pt" viewBox="0 0 192.000000 192.000000"
 preserveAspectRatio="xMidYMid meet">

<g transform="translate(0.000000,192.000000) scale(0.100000,-0.100000)"
fill="#000000" stroke="none">
<path d="M125 1905 c-50 -18 -100 -71 -114 -122 -15 -54 -15 -1593 0 -1648 14
-51 73 -110 124 -124 56 -15 1594 -15 1650 0 51 14 110 73 124 124 15 56 15
1594 0 1650 -14 51 -73 110 -124 124 -28 7 -283 11 -830 11 -655 -1 -797 -3
-830 -15z m463 -575 c30 -11 32 -15 32 -62 0 -48 -1 -50 -22 -43 -89 28 -146
35 -211 25 -81 -12 -114 -28 -162 -75 -50 -50 -68 -122 -63 -244 5 -112 24
-159 88 -214 46 -39 103 -57 184 -57 90 0 86 -7 86 156 l0 144 55 0 55 0 0
-174 0 -174 -47 -19 c-37 -14 -75 -18 -163 -18 -103 1 -121 3 -170 27 -129 61
-200 186 -200 353 0 199 94 331 270 382 53 15 219 11 268 -7z m1235 1 c26 -10
28 -14 25 -58 -2 -37 -6 -47 -18 -44 -98 26 -149 32 -209 21 -108 -19 -158
-72 -148 -159 8 -74 36 -90 209 -126 118 -25 176 -74 185 -158 11 -96 -25
-164 -111 -210 -36 -19 -57 -22 -161 -22 -73 0 -139 5 -167 14 l-48 14 0 54 0
54 29 -16 c42 -21 166 -38 225 -30 103 13 146 56 132 130 -9 47 -35 62 -150
85 -181 37 -246 96 -246 224 0 60 14 108 43 148 23 31 97 74 153 88 48 12 219
6 257 -9z m-545 -38 l3 -43 -186 0 -186 0 3 -142 3 -143 153 -3 153 -3 -3 -42
-3 -42 -152 -3 -153 -3 0 -144 0 -145 -50 0 -50 0 0 380 0 380 233 -2 232 -3
3 -42z"/>
</g>
</svg>
